<svg width="1344" height="184" viewBox="0 0 1344 184" fill="none" xmlns="http://www.w3.org/2000/svg">
<g clip-path="url(#clip0_3705_34925)">
<rect width="1344" height="184" rx="20" fill="#E1E6EF"/>
<g clip-path="url(#clip1_3705_34925)">
<path d="M726.751 156.463C726.751 156.463 733.038 182.352 755.044 197.367C755.044 197.367 785.924 218.313 809.84 232.092L1386.78 565.5C1438.56 510.262 1474 430.987 1474 360.858V-84.819C1474 -155.813 1437.63 -236.138 1384.81 -291.5L755.598 77.0039C755.598 77.0039 712.944 106.539 726.751 156.402" fill="#C8D3E9"/>
</g>
</g>
<defs>
<clipPath id="clip0_3705_34925">
<rect width="1344" height="184" rx="20" fill="white"/>
</clipPath>
<clipPath id="clip1_3705_34925">
<path d="M724 0H1324C1335.05 0 1344 8.9543 1344 20V254C1344 265.046 1335.05 274 1324 274H724V0Z" fill="white"/>
</clipPath>
</defs>
</svg>
